<?xml version="1.0" encoding="utf-8"?>
<!-- Generator: Adobe Illustrator 23.0.0, SVG Export Plug-In . SVG Version: 6.00 Build 0)  -->
<svg version="1.1" id="Capa_1" xmlns="http://www.w3.org/2000/svg" xmlns:xlink="http://www.w3.org/1999/xlink" x="0px" y="0px"
	 viewBox="0 0 37 35" style="enable-background:new 0 0 37 35;" xml:space="preserve">
<style type="text/css">
	.st0{fill:#FF6D10;}
	.st1{fill:#058080;}
	.st2{fill:#ECD8C0;}
	.st3{fill:#353535;}
	.st4{fill:#FFFFFF;}
	.st5{fill:none;stroke:#353535;stroke-width:2;stroke-miterlimit:10;}
	.st6{fill:#FF5500;}
	.st7{fill:#0062D8;}
	.st8{fill:#FF7C28;}
	.st9{fill:#119692;}
	.st10{fill:#FF5023;}
	.st11{fill:#F4DF7D;}
	.st12{fill:#F4DA5A;}
	.st13{fill:#F3AA41;}
	.st14{fill:#D78F74;}
	.st15{fill:#D28058;}
	.st16{fill:#FFB125;}
	.st17{fill:#FF901D;}
	.st18{fill:#F2F2F2;}
	.st19{fill:#EC4A59;}
	.st20{fill:#E63950;}
	.st21{fill:#EC5569;}
	.st22{fill:#FFF5F5;}
	.st23{fill:#DCE6EB;}
	.st24{fill:#353435;}
	.st25{fill:#EC6D23;}
	.st26{fill:#E84A5A;}
	.st27{fill:#058488;}
	.st28{fill:#87431D;}
	.st29{fill:#551F55;}
	.st30{fill:#1F3640;}
	.st31{fill:#F7F7F6;}
	.st32{fill:#767676;}
	.st33{fill:#D3DCFB;}
	.st34{fill:#EBF5FC;}
	.st35{fill:#3C58A0;}
	.st36{fill:#2A428C;}
	.st37{fill:#FF4155;}
	.st38{fill:#E80054;}
	.st39{fill:#4FABF7;}
	.st40{fill:#1886EA;}
	.st41{fill:#FFDD40;}
	.st42{fill:#25B7B3;}
	.st43{fill:#DF646E;}
	.st44{fill:#DC4955;}
	.st45{fill:#D82F3C;}
	.st46{fill:none;}
	.st47{fill:#F2D1A5;}
	.st48{fill:#F2BB88;}
	.st49{fill:#5F6C75;}
	.st50{fill:#4E5A61;}
	.st51{fill:#FE646F;}
	.st52{fill:#FD4755;}
	.st53{fill:#FFAC3E;}
	.st54{fill:#FF4755;}
	.st55{fill:#FC2B3A;}
	.st56{fill:#01423F;}
	.st57{fill:#058589;}
	.st58{fill:none;stroke:#FF6D10;stroke-width:2;}
</style>
<g>
	<g transform="matrix(1, 0, 0, 1, 0, 0)">
		<g id="Trazado_1971-2_1_" transform="translate(9 6)">
			<path class="st46" d="M9.5-5.16c9.2,0,16.66,7.46,16.66,16.66S18.7,28.16,9.5,28.16S-7.16,20.7-7.16,11.5c0,0,0,0,0,0
				C-7.16,2.3,0.3-5.16,9.5-5.16z"/>
			<path class="st0" d="M9.5-3.16c-3.92,0-7.6,1.52-10.37,4.29S-5.16,7.58-5.16,11.5s1.52,7.6,4.29,10.37s6.45,4.29,10.37,4.29
				s7.6-1.52,10.37-4.29s4.29-6.45,4.29-10.37s-1.52-7.6-4.29-10.37S13.42-3.16,9.5-3.16 M9.5-5.16c9.2,0,16.66,7.46,16.66,16.66
				S18.7,28.16,9.5,28.16S-7.16,20.7-7.16,11.5S0.3-5.16,9.5-5.16z"/>
		</g>
	</g>
	<g id="Profile_1_" transform="translate(23.385 10.599)">
		<path id="Unión_1_1_" class="st58" d="M-14.54,14.24v-2.38c0-2.61,4.28-4.75,9.5-4.75s9.5,2.14,9.5,4.75v2.38H-14.54z M-9.8-0.01
			c0-2.62,2.13-4.75,4.75-4.75S-0.3-2.63-0.3-0.01s-2.13,4.75-4.75,4.75S-9.79,2.62-9.8-0.01L-9.8-0.01z"/>
	</g>
</g>
</svg>
