<svg id="Capa_1" data-name="Capa 1" xmlns="http://www.w3.org/2000/svg" viewBox="0 0 324 324"><defs><style>.cls-1{fill:#ff6d10;}.cls-2{fill:#fff;}</style></defs><title>Iconos Redes Sociales Terratur BG_25</title><circle class="cls-1" cx="163" cy="162.5" r="159.13"/><path class="cls-2" d="M60.84,232.42c23.31.88,44-5.09,62.37-19.45-19.35-2.5-32.89-12.13-40.14-30.25l18-.94-.09-1.24Q65.87,165,67.21,137.64l17.94,4.91.79-1.16c-19-16.33-23.28-35.71-13-58.92,24.59,28.49,54.84,44.15,92.21,46.7-.2-3.76-.57-7-.53-10.27.24-19,9.08-33,26.26-40.65,17-7.56,33.26-4.91,47.5,7.24,2.74,2.34,5.05,2.91,8.17,1.76C254,84.5,261.42,81.79,269,79c-3.08,9.12-9.21,16.16-17.11,21.92l.64,1.38,21.73-5.72.88.83c-6.37,6.22-12.82,12.35-19,18.72a8.55,8.55,0,0,0-2.49,5.35c.8,55.11-35.68,114.22-100.37,126.82-31.58,6.15-61.8,1.81-90-14.32C62.44,233.51,61.65,232.94,60.84,232.42Z"/></svg>