<svg id="Capa_1" data-name="Capa 1" xmlns="http://www.w3.org/2000/svg" viewBox="0 0 62 62"><defs><style>.cls-1{fill:#ff6d10;}.cls-2{fill:#fff;}</style></defs><title>Iconos Redes Sociales Terratur BG</title><circle class="cls-1" cx="31" cy="31" r="30.5"/><path class="cls-1" d="M31,6.4A24.6,24.6,0,1,1,6.4,31,24.59,24.59,0,0,1,31,6.4"/><path class="cls-2" d="M47.23,23.43a9.73,9.73,0,0,0-2.64-6.85,9.73,9.73,0,0,0-6.85-2.64c-2.7-.15-10.78-.15-13.48,0a9.71,9.71,0,0,0-6.85,2.63,9.73,9.73,0,0,0-2.64,6.85c-.15,2.7-.15,10.78,0,13.48a9.73,9.73,0,0,0,2.64,6.85,9.8,9.8,0,0,0,6.85,2.64c2.7.15,10.78.15,13.48,0a9.73,9.73,0,0,0,6.85-2.64,9.73,9.73,0,0,0,2.64-6.85c.15-2.7.15-10.78,0-13.47Z"/><path class="cls-1" d="M43.74,39.79a5.54,5.54,0,0,1-3.1,3.11c-2.16.85-7.26.66-9.64.66s-7.48.19-9.63-.66a5.48,5.48,0,0,1-3.1-3.11c-.86-2.15-.66-7.25-.66-9.63s-.19-7.49.66-9.63a5.51,5.51,0,0,1,3.1-3.11c2.15-.85,7.26-.65,9.63-.65s7.49-.19,9.64.65a5.51,5.51,0,0,1,3.1,3.11c.85,2.15.66,7.26.66,9.63S44.59,37.65,43.74,39.79Z"/><circle class="cls-2" cx="31" cy="30.16" r="8.38"/><path class="cls-1" d="M31,35.61a5.45,5.45,0,1,1,5.45-5.45A5.45,5.45,0,0,1,31,35.61Z"/><circle class="cls-2" cx="39.72" cy="21.44" r="1.95"/></svg>