<?xml version="1.0" encoding="utf-8"?>
<!-- Generator: Adobe Illustrator 23.0.0, SVG Export Plug-In . SVG Version: 6.00 Build 0)  -->
<svg version="1.1" id="Capa_1" xmlns="http://www.w3.org/2000/svg" xmlns:xlink="http://www.w3.org/1999/xlink" x="0px" y="0px"
	 viewBox="0 0 220 191" style="enable-background:new 0 0 220 191;" xml:space="preserve">
<style type="text/css">
	.st0{fill:#FF6D10;}
	.st1{fill:#058080;}
	.st2{fill:#ECD8C0;}
	.st3{fill:#353535;}
	.st4{fill:#FFFFFF;}
	.st5{fill:#DCE6EB;}
	.st6{fill:none;stroke:#353535;stroke-width:2;stroke-miterlimit:10;}
	.st7{fill:#FF5500;}
	.st8{fill:#0062D8;}
	.st9{fill:#FF7C28;}
	.st10{fill:#119692;}
	.st11{fill:#FF5023;}
	.st12{fill:#F4DF7D;}
	.st13{fill:#F4DA5A;}
	.st14{fill:#F3AA41;}
	.st15{fill:#D78F74;}
	.st16{fill:#D28058;}
	.st17{fill:#FFB125;}
	.st18{fill:#FF901D;}
	.st19{fill:#F2F2F2;}
	.st20{fill:#FF6D00;}
	.st21{fill:#EC5569;}
	.st22{fill:#FFF5F5;}
	.st23{fill:#353435;}
	.st24{fill:#EC4A59;}
	.st25{fill:#E63950;}
	.st26{fill:#EC6D23;}
	.st27{fill:#E84A5A;}
	.st28{fill:#058488;}
	.st29{fill:#87431D;}
	.st30{fill:#551F55;}
	.st31{fill:#1F3640;}
	.st32{fill:#F7F7F6;}
	.st33{fill:#767676;}
	.st34{fill:#D3DCFB;}
	.st35{fill:#EBF5FC;stroke:#353535;stroke-width:3;stroke-miterlimit:10;}
	.st36{fill:#FF6D00;stroke:#353535;stroke-width:3;stroke-miterlimit:10;}
	.st37{fill:#EBF5FC;}
	.st38{fill:#3C58A0;}
	.st39{fill:#2A428C;}
	.st40{fill:#FF4155;}
	.st41{fill:#E80054;}
	.st42{fill:#4FABF7;}
	.st43{fill:#1886EA;}
	.st44{fill:#FFDD40;}
	.st45{fill:none;}
	.st46{fill:#F2D1A5;}
	.st47{fill:#F2BB88;}
	.st48{fill:#25B7B3;}
	.st49{fill:#DF646E;}
	.st50{fill:#DC4955;}
	.st51{fill:#D82F3C;}
	.st52{fill:#5F6C75;}
	.st53{fill:#4E5A61;}
	.st54{fill:#FE646F;}
	.st55{fill:#FD4755;}
	.st56{fill:#FFAC3E;}
	.st57{fill:#FF4755;}
	.st58{fill:#FC2B3A;}
	.st59{fill:#01423F;}
	.st60{fill:#058589;}
	.st61{fill:none;stroke:#FF6D10;stroke-width:2;}
	.st62{fill:none;stroke:#FF6D10;stroke-width:10;stroke-miterlimit:10;}
	.st63{fill:#F0F0F0;}
	.st64{fill:#F1F1F1;}
	.st65{fill:#555A66;}
	.st66{fill:#333940;}
	.st67{fill:#30363C;}
	.st68{fill:#EFEFEF;}
	.st69{fill:#555A65;}
	.st70{fill:#33393F;}
	.st71{fill:#535864;}
	.st72{fill:#E3E3E3;}
	.st73{fill:#32383F;}
	.st74{fill:#33383F;}
	.st75{fill:#2F353B;}
	.st76{fill:#21272C;}
	.st77{fill:#BFA885;}
	.st78{fill:#FFE0B2;}
	.st79{fill:#F0C419;}
	.st80{fill:#F29C1F;}
	.st81{fill:#ECF0F1;}
	.st82{fill:#177272;}
	.st83{fill:#E9E9EA;}
	.st84{fill:#2488FF;}
	.st85{fill:none;stroke:#F15A24;stroke-width:0.5;stroke-miterlimit:10;}
	.st86{clip-path:url(#SVGID_2_);fill:#FF6D10;}
	.st87{fill:#D8B8A3;}
	.st88{fill:#63C5DE;}
	.st89{fill:#E5C3AD;}
	.st90{fill:#D4D4D2;}
	.st91{fill:#B3B3B3;}
	.st92{fill:#989898;}
	.st93{fill:#6AD4FF;}
	.st94{fill:#FF8050;}
	.st95{fill:#008CE7;}
	.st96{fill:#FDC8A2;}
	.st97{fill:#FDBF92;}
	.st98{fill:none;stroke:#FF6D10;stroke-width:10;}
	.st99{fill:url(#SVGID_3_);}
	.st100{opacity:0.1;}
	.st101{clip-path:url(#SVGID_5_);fill:url(#SVGID_6_);}
	.st102{opacity:0.1;clip-path:url(#SVGID_5_);}
	.st103{opacity:0.5;clip-path:url(#SVGID_5_);fill:url(#SVGID_7_);}
	.st104{clip-path:url(#SVGID_9_);}
	.st105{fill:url(#SVGID_10_);}
	.st106{clip-path:url(#SVGID_12_);fill:url(#SVGID_13_);}
	.st107{fill:url(#SVGID_14_);}
	.st108{clip-path:url(#SVGID_16_);fill:url(#SVGID_17_);}
	.st109{opacity:0.1;clip-path:url(#SVGID_9_);}
	.st110{fill:url(#SVGID_18_);}
	.st111{fill:url(#SVGID_19_);}
	.st112{clip-path:url(#SVGID_21_);}
	.st113{fill:url(#SVGID_22_);}
	.st114{fill:url(#SVGID_23_);}
	.st115{fill:url(#SVGID_24_);}
	.st116{fill:url(#SVGID_25_);}
	.st117{fill:url(#SVGID_26_);}
	.st118{fill:url(#SVGID_27_);}
	.st119{fill:url(#SVGID_28_);}
	.st120{opacity:0.1;clip-path:url(#SVGID_30_);}
	.st121{fill:url(#SVGID_31_);}
	.st122{fill:url(#SVGID_32_);}
	.st123{fill:url(#SVGID_33_);}
	.st124{fill:none;stroke:#DFF9FB;stroke-width:0.75;stroke-miterlimit:10;}
	.st125{fill:url(#SVGID_34_);}
	.st126{opacity:0.1;clip-path:url(#SVGID_36_);}
	.st127{fill:url(#SVGID_37_);}
	.st128{fill:url(#SVGID_38_);}
	.st129{fill:url(#SVGID_39_);}
	.st130{opacity:0.1;fill:url(#SVGID_40_);}
	.st131{opacity:0.1;fill:url(#SVGID_41_);}
	.st132{fill:url(#SVGID_42_);}
	.st133{fill:url(#SVGID_43_);}
	.st134{fill:url(#SVGID_44_);}
	.st135{fill:url(#SVGID_45_);}
	.st136{fill:url(#SVGID_46_);}
	.st137{fill:url(#SVGID_47_);}
	.st138{fill:url(#SVGID_48_);}
	.st139{fill:url(#SVGID_49_);}
	.st140{fill:url(#SVGID_50_);}
	.st141{fill:url(#SVGID_51_);}
	.st142{fill:url(#SVGID_52_);}
	.st143{fill:#130F40;}
	.st144{fill:url(#SVGID_53_);}
	.st145{fill:url(#SVGID_54_);}
	.st146{fill:url(#SVGID_55_);}
	.st147{fill:url(#SVGID_56_);}
	.st148{opacity:0.2;clip-path:url(#SVGID_58_);}
	.st149{opacity:0.2;fill:#FFFFFF;}
	.st150{fill:url(#SVGID_59_);}
	.st151{fill:url(#SVGID_60_);}
	.st152{opacity:0.2;clip-path:url(#SVGID_62_);}
	.st153{fill:url(#SVGID_63_);}
	.st154{fill:url(#SVGID_64_);}
	.st155{clip-path:url(#SVGID_66_);}
	.st156{fill:url(#SVGID_67_);}
	.st157{fill:url(#SVGID_68_);}
	.st158{fill:url(#SVGID_69_);}
	.st159{fill:url(#SVGID_70_);}
	.st160{fill:url(#SVGID_71_);}
	.st161{opacity:0.1;clip-path:url(#SVGID_73_);}
	.st162{clip-path:url(#SVGID_66_);fill:#130F40;}
	.st163{opacity:0.6;}
	.st164{fill:url(#SVGID_74_);}
	.st165{fill:url(#SVGID_75_);}
	.st166{fill:url(#SVGID_76_);}
	.st167{fill:url(#SVGID_77_);}
	.st168{fill:url(#SVGID_78_);}
	.st169{fill:url(#SVGID_79_);}
	.st170{fill:url(#SVGID_80_);}
	.st171{fill:url(#SVGID_81_);}
	.st172{fill:url(#SVGID_86_);}
	.st173{fill:#FEFEFE;}
</style>
<g transform="matrix(1, 0, 0, 1, 0, 0)">
	<g id="Trazado_1547-2" transform="translate(9 6)">
		<path class="st45" d="M101-2.75c51.36,0,93,41.64,93,93s-41.64,93-93,93s-93-41.64-93-93h0C8,38.89,49.64-2.75,101-2.75z"/>
		<path class="st0" d="M101,8.42c-21.86,0-42.41,8.51-57.87,23.97S19.17,68.39,19.17,90.25s8.51,42.41,23.97,57.87
			c15.46,15.46,36.01,23.97,57.87,23.97s42.41-8.51,57.87-23.97c15.46-15.46,23.97-36.01,23.97-57.87s-8.51-42.41-23.97-57.87
			C143.41,16.93,122.86,8.42,101,8.42 M101-2.75c51.36,0,93,41.64,93,93s-41.64,93-93,93s-93-41.64-93-93S49.64-2.75,101-2.75z"/>
	</g>
</g>
<g>
	<path class="st0" d="M169.72,81.9c-0.15,8.95-3.45,16.53-9.81,22.82c-13.82,13.67-27.63,27.37-41.44,41.06
		c-1.73,1.72-3.45,3.45-5.2,5.16c-2.04,1.99-4.44,1.98-6.47-0.02c-15.64-15.5-31.35-30.94-46.9-46.52
		c-8.62-8.64-11.58-19.16-8.34-30.92c3.25-11.79,11.21-19.39,23.08-22.35c11.05-2.76,20.99-0.07,29.5,7.55
		c1.82,1.63,3.52,3.39,5.23,5.13c0.54,0.55,0.84,0.5,1.36-0.01c2.38-2.33,4.61-4.81,7.24-6.87c18.69-14.59,46.26-4.55,51.12,18.63
		C169.52,77.64,169.76,79.76,169.72,81.9z"/>
	<path class="st173" d="M58.89,83.01c0.02-15.1,12.46-25.97,26.21-24.2c5.43,0.7,10.08,2.92,13.96,6.76c2.52,2.5,5.04,5,7.57,7.49
		c2.29,2.25,4.55,2.24,6.86-0.02c2.72-2.68,5.39-5.4,8.15-8.04c6.91-6.61,17.36-8.23,26.2-4.11c8.58,3.99,13.9,12.86,13.3,22.38
		c-0.37,5.95-2.81,11-7.05,15.2c-8.55,8.46-17.08,16.94-25.62,25.4c-5.83,5.78-11.67,11.55-17.48,17.35
		c-0.66,0.66-1.02,0.88-1.83,0.07c-14.34-14.28-28.71-28.53-43.1-42.76C61.38,93.91,58.97,88.35,58.89,83.01z"/>
</g>
</svg>
