<svg id="Capa_1" data-name="Capa 1" xmlns="http://www.w3.org/2000/svg" viewBox="0 0 62 62"><defs><style>.cls-1{fill:#ff6d10;}.cls-2{fill:#fff;}</style></defs><title>Iconos Redes Sociales Terratur BG</title><circle class="cls-1" cx="31" cy="31" r="30.5"/><path class="cls-1" d="M31,6.4A24.6,24.6,0,1,1,6.4,31,24.59,24.59,0,0,1,31,6.4"/><path class="cls-2" d="M43.64,18.22A16.47,16.47,0,0,0,17.72,38.08l-2.33,8.53,8.73-2.29a16.44,16.44,0,0,0,7.87,2h0A16.62,16.62,0,0,0,48.61,29.86,16.53,16.53,0,0,0,43.64,18.22Z"/><path class="cls-1" d="M32,43.55a13.63,13.63,0,0,1-7-1.91l-.5-.29L19.35,42.7l1.38-5.05-.33-.52a13.71,13.71,0,1,1,25.43-7.27A13.83,13.83,0,0,1,32,43.55Z"/><path class="cls-2" d="M39.5,33.3c-.41-.21-2.43-1.2-2.81-1.33s-.66-.21-.93.2a19.94,19.94,0,0,1-1.31,1.62c-.23.27-.48.31-.89.1-2.41-1.21-4-2.15-5.59-4.89-.43-.73.42-.68,1.2-2.25a.76.76,0,0,0,0-.72c-.11-.21-.93-2.23-1.27-3.05s-.68-.69-.93-.71h-.78a1.51,1.51,0,0,0-1.1.51,4.6,4.6,0,0,0-1.44,3.43,8,8,0,0,0,1.68,4.26c.2.27,2.9,4.43,7,6.21,2.61,1.13,3.63,1.23,4.94,1a4.23,4.23,0,0,0,2.77-2,3.51,3.51,0,0,0,.24-2C40.18,33.6,39.91,33.5,39.5,33.3Z"/></svg>